<?xml version="1.0" encoding="utf-8"?>
<!-- Generator: Adobe Illustrator 19.0.0, SVG Export Plug-In . SVG Version: 6.00 Build 0)  -->
<svg version="1.1" id="Layer_1" xmlns="http://www.w3.org/2000/svg" xmlns:xlink="http://www.w3.org/1999/xlink" x="0px" y="0px"
	 viewBox="0 0 200 77" style="enable-background:new 0 0 200 77;" xml:space="preserve">
<style type="text/css">
	.st0{fill:#1D1D1B;}
</style>
<g id="XMLID_2_">
	<g id="XMLID_12_">
		<path id="XMLID_22_" class="st0" d="M176.5,29.4c-4.3,0-8.3,1.2-11.7,3.2V5.9H153v70.5h11.7v-3.2c3.5,2,7.5,3.2,11.7,3.2
			c13,0,23.5-10.5,23.5-23.5S189.5,29.4,176.5,29.4z M176.5,64.6c-6.5,0-11.7-5.3-11.7-11.7c0-6.5,5.3-11.7,11.7-11.7
			c6.5,0,11.7,5.3,11.7,11.7C188.3,59.3,183,64.6,176.5,64.6z"/>
		<path id="XMLID_19_" class="st0" d="M23.5,23.5c-4.3,0-8.3,1.2-11.7,3.2V0H0v70.5h11.7v-3.2c3.5,2,7.5,3.2,11.7,3.2
			C36.5,70.5,47,60,47,47S36.5,23.5,23.5,23.5z M23.5,58.7c-6.5,0-11.7-5.3-11.7-11.7c0-6.5,5.3-11.7,11.7-11.7
			c6.5,0,11.7,5.3,11.7,11.7C35.2,53.5,30,58.7,23.5,58.7z"/>
		<rect id="XMLID_7_" x="54.2" y="29.4" class="st0" width="11.7" height="11.7"/>
		
			<rect id="XMLID_6_" x="54.2" y="62.2" transform="matrix(-0.7071 -0.7071 0.7071 -0.7071 54.4676 158.6536)" class="st0" width="11.7" height="11.7"/>
		<path id="XMLID_14_" class="st0" d="M136.5,32.5c-3.5-2-7.5-3.2-11.7-3.2c-13,0-23.5,10.5-23.5,23.5s10.5,23.5,23.5,23.5
			c4.3,0,8.3-1.2,11.7-3.2v3.2h11.7v-47h-11.7V32.5z M124.8,64.6c-6.5,0-11.7-5.3-11.7-11.7c0-6.5,5.3-11.7,11.7-11.7
			c6.5,0,11.7,5.3,11.7,11.7C136.5,59.3,131.3,64.6,124.8,64.6z"/>
		<path id="XMLID_3_" class="st0" d="M89.6,52.9v-47H77.8v47c0,13,10.5,23.5,23.5,23.5V64.6C94.8,64.6,89.6,59.3,89.6,52.9z"/>
	</g>
</g>
</svg>
